<svg width="63" height="21" viewBox="0 0 63 21" fill="none" xmlns="http://www.w3.org/2000/svg">
<g clip-path="url(#clip0_18_109)">
<g clip-path="url(#clip1_18_109)">
<g clip-path="url(#clip2_18_109)">
<path d="M5.39738 6.20691C5.78904 6.26867 6.14771 6.42822 6.47341 6.68555C6.79704 6.94289 7.05471 7.26198 7.24641 7.64284C7.43606 8.02369 7.53088 8.43028 7.53088 8.8626C7.53088 9.40815 7.39174 9.89915 7.11346 10.3356C6.83517 10.7741 6.43115 11.1189 5.90138 11.3701C5.36956 11.6233 4.7429 11.7499 4.02143 11.7499H0.00180054V0.988165H3.86683C4.59861 0.988165 5.22217 1.1086 5.73751 1.34946C6.25284 1.59239 6.63935 1.91972 6.89702 2.33145C7.15468 2.74319 7.28352 3.20639 7.28352 3.72106C7.28352 4.35925 7.1114 4.88627 6.76715 5.30212C6.42084 5.72003 5.96425 6.02163 5.39738 6.20691ZM1.40867 2.14617V5.63563H3.77407C4.4337 5.63563 4.94389 5.48123 5.30462 5.17242C5.66536 4.86362 5.84573 4.43645 5.84573 3.8909C5.84573 3.34535 5.66536 2.91817 5.30462 2.60937C4.94389 2.30057 4.4234 2.14617 3.74315 2.14617H1.40867ZM3.89775 10.5919C4.59861 10.5919 5.14487 10.4272 5.53652 10.0978C5.92818 9.76842 6.12401 9.31036 6.12401 8.72364C6.12401 8.12662 5.91787 7.65519 5.5056 7.30933C5.09333 6.96553 4.54192 6.79363 3.85137 6.79363H1.40867V10.5919H3.89775ZM10.2055 1.91457C9.93751 1.91457 9.71076 1.82193 9.52524 1.63665C9.33972 1.45137 9.24695 1.22491 9.24695 0.957284C9.24695 0.689656 9.33972 0.463201 9.52524 0.277921C9.71076 0.0926397 9.93751 0 10.2055 0C10.4632 0 10.6817 0.0926397 10.861 0.277921C11.0424 0.463201 11.1331 0.689656 11.1331 0.957284C11.1331 1.22491 11.0424 1.45137 10.861 1.63665C10.6817 1.82193 10.4632 1.91457 10.2055 1.91457ZM9.47886 3.28874H10.8857V11.7499H9.47886V3.28874ZM12.7564 7.48843C12.7564 6.62379 12.9316 5.86414 13.282 5.20948C13.6325 4.55688 14.1138 4.05045 14.726 3.69018C15.3403 3.32991 16.0288 3.14977 16.7915 3.14977C17.4511 3.14977 18.0644 3.30109 18.6312 3.60371C19.1981 3.9084 19.631 4.30778 19.9299 4.80186V0.324241H21.3522V11.7499H19.9299V10.1596C19.6516 10.6639 19.2393 11.0777 18.6931 11.4009C18.1468 11.7262 17.5078 11.8889 16.776 11.8889C16.0236 11.8889 15.3403 11.7036 14.726 11.333C14.1138 10.9625 13.6325 10.4426 13.282 9.77357C12.9316 9.1045 12.7564 8.34279 12.7564 7.48843ZM19.9299 7.50387C19.9299 6.86569 19.8011 6.30984 19.5434 5.83635C19.2857 5.36285 18.9374 4.9995 18.4983 4.74628C18.0613 4.49512 17.58 4.36954 17.0543 4.36954C16.5287 4.36954 16.0494 4.49306 15.6165 4.7401C15.1836 4.98714 14.8384 5.34741 14.5807 5.82091C14.323 6.2944 14.1942 6.85025 14.1942 7.48843C14.1942 8.13692 14.323 8.69997 14.5807 9.17758C14.8384 9.65725 15.1836 10.0227 15.6165 10.2738C16.0494 10.527 16.5287 10.6536 17.0543 10.6536C17.58 10.6536 18.0613 10.527 18.4983 10.2738C18.9374 10.0227 19.2857 9.65725 19.5434 9.17758C19.8011 8.69997 19.9299 8.14206 19.9299 7.50387ZM35.758 0.988165H37.2731L34.1501 11.7499H32.5732L30.0686 3.08801L27.4713 11.7499L25.9099 11.7653L22.8952 0.988165H24.3948L26.7447 10.1132L29.342 0.988165H30.919L33.3926 10.0824L35.758 0.988165ZM46.5491 7.19507C46.5491 7.4627 46.5337 7.74577 46.5028 8.04428H39.7312C39.7828 8.87804 40.0693 9.52858 40.5908 9.9959C41.1103 10.4653 41.741 10.7 42.4831 10.7C43.0912 10.7 43.5993 10.5579 44.0075 10.2738C44.4136 9.99179 44.6991 9.61402 44.864 9.14052H46.3791C46.1523 9.9537 45.6988 10.6156 45.0186 11.1261C44.3383 11.6346 43.4932 11.8889 42.4831 11.8889C41.6792 11.8889 40.9608 11.7087 40.328 11.3485C39.6931 10.9882 39.1953 10.4756 38.8345 9.81062C38.4738 9.14773 38.2934 8.37881 38.2934 7.50387C38.2934 6.62894 38.4686 5.86208 38.8191 5.2033C39.1695 4.54453 39.6622 4.03706 40.2971 3.68091C40.9299 3.32682 41.6586 3.14977 42.4831 3.14977C43.2871 3.14977 43.9982 3.32476 44.6166 3.67474C45.235 4.02471 45.7122 4.50541 46.0482 5.11684C46.3822 5.73033 46.5491 6.42307 46.5491 7.19507ZM45.0959 6.90171C45.0959 6.36646 44.9774 5.90531 44.7403 5.51828C44.5032 5.13331 44.1817 4.83995 43.7756 4.6382C43.3674 4.43851 42.916 4.33866 42.4213 4.33866C41.7101 4.33866 41.1051 4.56511 40.6063 5.01802C40.1054 5.47093 39.8188 6.09883 39.7467 6.90171H45.0959ZM47.8787 7.48843C47.8787 6.62379 48.0539 5.86414 48.4044 5.20948C48.7548 4.55688 49.2361 4.05045 49.8483 3.69018C50.4626 3.32991 51.1459 3.14977 51.8983 3.14977C52.6404 3.14977 53.2846 3.30932 53.8309 3.62842C54.3771 3.94751 54.7842 4.34895 55.0522 4.83274V3.28874H56.4745V11.7499H55.0522V10.175C54.7739 10.6691 54.3586 11.0777 53.8061 11.4009C53.2557 11.7262 52.6147 11.8889 51.8829 11.8889C51.1305 11.8889 50.4502 11.7036 49.8421 11.333C49.234 10.9625 48.7548 10.4426 48.4044 9.77357C48.0539 9.1045 47.8787 8.34279 47.8787 7.48843ZM55.0522 7.50387C55.0522 6.86569 54.9234 6.30984 54.6657 5.83635C54.408 5.36285 54.0597 4.9995 53.6206 4.74628C53.1836 4.49512 52.7023 4.36954 52.1766 4.36954C51.651 4.36954 51.1717 4.49306 50.7388 4.7401C50.3059 4.98714 49.9607 5.34741 49.703 5.82091C49.4453 6.2944 49.3165 6.85025 49.3165 7.48843C49.3165 8.13692 49.4453 8.69997 49.703 9.17758C49.9607 9.65725 50.3059 10.0227 50.7388 10.2738C51.1717 10.527 51.651 10.6536 52.1766 10.6536C52.7023 10.6536 53.1836 10.527 53.6206 10.2738C54.0597 10.0227 54.408 9.65725 54.6657 9.17758C54.9234 8.69997 55.0522 8.14206 55.0522 7.50387ZM60.2623 4.6629C60.5096 4.17911 60.8621 3.8034 61.3197 3.53578C61.7794 3.26815 62.3391 3.13433 62.9987 3.13433V4.5857H62.6277C61.0507 4.5857 60.2623 5.44005 60.2623 7.14875V11.7499H58.8554V3.28874H60.2623V4.6629Z" fill="white"/>
</g>
</g>
<g clip-path="url(#clip3_18_109)">
<g clip-path="url(#clip4_18_109)">
<path d="M0.00332642 17.2477C0.00332642 16.8295 0.0977453 16.4531 0.286583 16.1186C0.475421 15.7849 0.733226 15.5237 1.06 15.3351C1.38595 15.1465 1.74802 15.0522 2.14623 15.0522C2.61421 15.0522 3.02268 15.165 3.37162 15.3905C3.72056 15.6159 3.97508 15.9357 4.13518 16.3498H3.46399C3.34494 16.0915 3.17375 15.8927 2.95043 15.7533C2.72629 15.6139 2.45822 15.5442 2.14623 15.5442C1.84655 15.5442 1.57766 15.6139 1.33956 15.7533C1.10146 15.8927 0.914674 16.0903 0.779204 16.3461C0.643733 16.6028 0.575998 16.9033 0.575998 17.2477C0.575998 17.588 0.643733 17.886 0.779204 18.1419C0.914674 18.3985 1.10146 18.5965 1.33956 18.7359C1.57766 18.8753 1.84655 18.945 2.14623 18.945C2.45822 18.945 2.72629 18.8761 2.95043 18.7384C3.17375 18.6014 3.34494 18.4038 3.46399 18.1455H4.13518C3.97508 18.5555 3.72056 18.872 3.37162 19.0951C3.02268 19.3189 2.61421 19.4308 2.14623 19.4308C1.74802 19.4308 1.38595 19.3374 1.06 19.1504C0.733226 18.9643 0.475421 18.7052 0.286583 18.3731C0.0977453 18.041 0.00332642 17.6659 0.00332642 17.2477ZM4.96648 14.8431H5.52683V19.3939H4.96648V14.8431ZM7.95299 19.4493C7.63689 19.4493 7.35035 19.3776 7.09337 19.2341C6.8372 19.0906 6.63605 18.8864 6.48991 18.6215C6.34458 18.3575 6.27192 18.0513 6.27192 17.7028C6.27192 17.3584 6.34664 17.0538 6.49606 16.7889C6.64631 16.5249 6.85075 16.3219 7.10938 16.1801C7.368 16.039 7.65742 15.9685 7.97762 15.9685C8.29782 15.9685 8.58724 16.039 8.84586 16.1801C9.10449 16.3219 9.30852 16.5241 9.45794 16.7864C9.60819 17.0488 9.68332 17.3543 9.68332 17.7028C9.68332 18.0513 9.60614 18.3575 9.45179 18.6215C9.29825 18.8864 9.09012 19.0906 8.82739 19.2341C8.56466 19.3776 8.27319 19.4493 7.95299 19.4493ZM7.95299 18.9573C8.15414 18.9573 8.34298 18.9102 8.5195 18.8159C8.69602 18.7216 8.83847 18.5801 8.94685 18.3915C9.05605 18.2029 9.11065 17.9734 9.11065 17.7028C9.11065 17.4322 9.05728 17.2026 8.95055 17.014C8.84381 16.8254 8.70423 16.6848 8.53182 16.5921C8.3594 16.5003 8.17261 16.4544 7.97146 16.4544C7.7662 16.4544 7.57819 16.5003 7.40741 16.5921C7.23746 16.6848 7.10117 16.8254 6.99854 17.014C6.89591 17.2026 6.84459 17.4322 6.84459 17.7028C6.84459 17.9775 6.89468 18.2091 6.99484 18.3977C7.09583 18.5863 7.23048 18.7269 7.39879 18.8196C7.5671 18.9114 7.75183 18.9573 7.95299 18.9573ZM11.9851 16.4851H11.1045V18.4715C11.1045 18.6355 11.1394 18.7515 11.2092 18.8196C11.279 18.8868 11.4001 18.9204 11.5725 18.9204H11.9851V19.3939H11.4802C11.1682 19.3939 10.9342 19.3222 10.7782 19.1787C10.6222 19.0352 10.5442 18.7995 10.5442 18.4715V16.4851H10.107V16.0239H10.5442V15.1752H11.1045V16.0239H11.9851V16.4851ZM14.3373 15.9624C14.5919 15.9624 14.8218 16.0165 15.027 16.1247C15.2323 16.2338 15.3936 16.397 15.511 16.6143C15.6276 16.8315 15.6859 17.096 15.6859 17.4076V19.3939H15.1317V17.4875C15.1317 17.1513 15.0475 16.8939 14.8792 16.7151C14.7109 16.5372 14.481 16.4482 14.1896 16.4482C13.894 16.4482 13.6592 16.5405 13.4851 16.7249C13.3102 16.9094 13.2228 17.178 13.2228 17.5306V19.3939H12.6624V14.8431H13.2228V16.5036C13.3336 16.3314 13.4868 16.1981 13.6822 16.1038C13.8767 16.0095 14.0951 15.9624 14.3373 15.9624ZM19.6823 17.5798C19.6823 17.6864 19.6761 17.7991 19.6638 17.918H16.9667C16.9872 18.2501 17.101 18.5092 17.3079 18.6953C17.5156 18.8823 17.7672 18.9758 18.0628 18.9758C18.305 18.9758 18.507 18.9192 18.6687 18.806C18.8313 18.6937 18.9454 18.5432 19.0111 18.3546H19.6145C19.5242 18.6785 19.3436 18.9421 19.0727 19.1455C18.8017 19.348 18.4651 19.4493 18.0628 19.4493C17.7426 19.4493 17.456 19.3776 17.2032 19.2341C16.9511 19.0906 16.7532 18.8864 16.6096 18.6215C16.4659 18.3575 16.394 18.0513 16.394 17.7028C16.394 17.3543 16.4638 17.0488 16.6034 16.7864C16.743 16.5241 16.9388 16.3219 17.1909 16.1801C17.4437 16.039 17.7344 15.9685 18.0628 15.9685C18.383 15.9685 18.6663 16.0382 18.9126 16.1776C19.1589 16.317 19.3485 16.5085 19.4815 16.752C19.6154 16.9964 19.6823 17.2723 19.6823 17.5798ZM19.1035 17.4629C19.1035 17.2497 19.0562 17.0661 18.9618 16.9119C18.8674 16.7586 18.7389 16.6417 18.5764 16.5614C18.4146 16.4818 18.2352 16.4421 18.0382 16.4421C17.7549 16.4421 17.5135 16.5323 17.314 16.7127C17.1153 16.893 17.0016 17.1431 16.9729 17.4629H19.1035ZM21.6158 19.4493C21.3572 19.4493 21.1253 19.405 20.92 19.3165C20.7147 19.2287 20.5526 19.1057 20.4335 18.9475C20.3145 18.79 20.2488 18.6088 20.2365 18.4038H20.8153C20.8317 18.5719 20.9105 18.7093 21.0518 18.8159C21.1938 18.9225 21.3798 18.9758 21.6097 18.9758C21.8231 18.9758 21.9914 18.9286 22.1146 18.8343C22.2378 18.74 22.2993 18.6211 22.2993 18.4776C22.2993 18.33 22.2336 18.2202 22.1023 18.148C21.9709 18.0767 21.7677 18.0062 21.4927 17.9365C21.2422 17.8709 21.0378 17.804 20.8794 17.736C20.7217 17.6687 20.5862 17.5683 20.4729 17.4346C20.3605 17.3018 20.3042 17.1267 20.3042 16.9094C20.3042 16.7372 20.3555 16.5794 20.4582 16.4359C20.5608 16.2924 20.7065 16.1784 20.8954 16.094C21.0842 16.0103 21.2997 15.9685 21.5419 15.9685C21.9155 15.9685 22.2172 16.0628 22.4471 16.2514C22.677 16.44 22.8002 16.6983 22.8166 17.0263H22.2562C22.2439 16.85 22.1729 16.7086 22.0432 16.602C21.9143 16.4954 21.741 16.4421 21.5235 16.4421C21.3223 16.4421 21.1622 16.4851 21.0431 16.5712C20.9241 16.6573 20.8646 16.77 20.8646 16.9094C20.8646 17.0201 20.9003 17.1112 20.9717 17.1825C21.044 17.2547 21.1343 17.3125 21.2427 17.3559C21.3519 17.3986 21.5029 17.4465 21.6959 17.4998C21.9381 17.5654 22.1351 17.6298 22.287 17.6929C22.4389 17.7569 22.569 17.8524 22.6774 17.9795C22.7866 18.1066 22.8433 18.2726 22.8474 18.4776C22.8474 18.6621 22.7961 18.8282 22.6934 18.9758C22.5908 19.1234 22.4459 19.239 22.2587 19.3226C22.0723 19.4071 21.858 19.4493 21.6158 19.4493ZM26.6516 16.0239V16.4851H25.9435V19.3939H25.3831V16.4851H24.9459V16.0239H25.3831V15.784C25.3831 15.4068 25.4808 15.1309 25.6762 14.9563C25.8708 14.7824 26.1836 14.6955 26.6147 14.6955V15.1629C26.3684 15.1629 26.1951 15.2109 26.095 15.3068C25.994 15.4036 25.9435 15.5626 25.9435 15.784V16.0239H26.6516ZM28.7761 19.4493C28.46 19.4493 28.1734 19.3776 27.9164 19.2341C27.6603 19.0906 27.4591 18.8864 27.313 18.6215C27.1676 18.3575 27.095 18.0513 27.095 17.7028C27.095 17.3584 27.1697 17.0538 27.3191 16.7889C27.4694 16.5249 27.6738 16.3219 27.9324 16.1801C28.1911 16.039 28.4805 15.9685 28.8007 15.9685C29.1209 15.9685 29.4103 16.039 29.6689 16.1801C29.9276 16.3219 30.1316 16.5241 30.281 16.7864C30.4313 17.0488 30.5064 17.3543 30.5064 17.7028C30.5064 18.0513 30.4292 18.3575 30.2749 18.6215C30.1213 18.8864 29.9132 19.0906 29.6505 19.2341C29.3877 19.3776 29.0963 19.4493 28.7761 19.4493ZM28.7761 18.9573C28.9772 18.9573 29.166 18.9102 29.3426 18.8159C29.5191 18.7216 29.6615 18.5801 29.7699 18.3915C29.8791 18.2029 29.9337 17.9734 29.9337 17.7028C29.9337 17.4322 29.8803 17.2026 29.7736 17.014C29.6669 16.8254 29.5273 16.6848 29.3549 16.5921C29.1825 16.5003 28.9957 16.4544 28.7945 16.4544C28.5893 16.4544 28.4013 16.5003 28.2305 16.5921C28.0605 16.6848 27.9242 16.8254 27.8216 17.014C27.719 17.2026 27.6677 17.4322 27.6677 17.7028C27.6677 17.9775 27.7177 18.2091 27.8179 18.3977C27.9189 18.5863 28.0535 18.7269 28.2219 18.8196C28.3902 18.9114 28.5749 18.9573 28.7761 18.9573ZM31.8057 16.5712C31.9042 16.3785 32.0446 16.2289 32.2269 16.1223C32.41 16.0157 32.6329 15.9624 32.8956 15.9624V16.5405H32.7478C32.1197 16.5405 31.8057 16.8807 31.8057 17.5613V19.3939H31.2453V16.0239H31.8057V16.5712ZM38.2639 17.5798C38.2639 17.6864 38.2578 17.7991 38.2455 17.918H35.5484C35.5689 18.2501 35.683 18.5092 35.8907 18.6953C36.0976 18.8823 36.3489 18.9758 36.6444 18.9758C36.8866 18.9758 37.089 18.9192 37.2516 18.806C37.4133 18.6937 37.527 18.5432 37.5927 18.3546H38.1962C38.1059 18.6785 37.9252 18.9421 37.6543 19.1455C37.3834 19.348 37.0467 19.4493 36.6444 19.4493C36.3242 19.4493 36.0381 19.3776 35.786 19.2341C35.5332 19.0906 35.3349 18.8864 35.1912 18.6215C35.0475 18.3575 34.9757 18.0513 34.9757 17.7028C34.9757 17.3543 35.0455 17.0488 35.185 16.7864C35.3246 16.5241 35.5209 16.3219 35.7737 16.1801C36.0258 16.039 36.316 15.9685 36.6444 15.9685C36.9646 15.9685 37.2479 16.0382 37.4942 16.1776C37.7405 16.317 37.9306 16.5085 38.0644 16.752C38.1974 16.9964 38.2639 17.2723 38.2639 17.5798ZM37.6851 17.4629C37.6851 17.2497 37.6379 17.0661 37.5435 16.9119C37.449 16.7586 37.321 16.6417 37.1592 16.5614C36.9967 16.4818 36.8169 16.4421 36.6198 16.4421C36.3365 16.4421 36.0956 16.5323 35.8969 16.7127C35.6974 16.893 35.5832 17.1431 35.5545 17.4629H37.6851ZM39.2061 16.0239L40.259 18.8774L41.3059 16.0239H41.9032L40.5792 19.3939H39.9265L38.6026 16.0239H39.2061ZM45.5362 17.5798C45.5362 17.6864 45.5301 17.7991 45.5178 17.918H42.8207C42.8412 18.2501 42.9549 18.5092 43.1618 18.6953C43.3695 18.8823 43.6212 18.9758 43.9167 18.9758C44.1589 18.9758 44.3609 18.9192 44.5227 18.806C44.6852 18.6937 44.7994 18.5432 44.865 18.3546H45.4685C45.3782 18.6785 45.1976 18.9421 44.9266 19.1455C44.6557 19.348 44.3191 19.4493 43.9167 19.4493C43.5965 19.4493 43.31 19.3776 43.0571 19.2341C42.8051 19.0906 42.6072 18.8864 42.4635 18.6215C42.3198 18.3575 42.248 18.0513 42.248 17.7028C42.248 17.3543 42.3178 17.0488 42.4574 16.7864C42.5969 16.5241 42.7928 16.3219 43.0448 16.1801C43.2977 16.039 43.5883 15.9685 43.9167 15.9685C44.2369 15.9685 44.5202 16.0382 44.7665 16.1776C45.0128 16.317 45.2025 16.5085 45.3355 16.752C45.4693 16.9964 45.5362 17.2723 45.5362 17.5798ZM44.9574 17.4629C44.9574 17.2497 44.9102 17.0661 44.8158 16.9119C44.7214 16.7586 44.5929 16.6417 44.4303 16.5614C44.2686 16.4818 44.0892 16.4421 43.8921 16.4421C43.6089 16.4421 43.3675 16.5323 43.168 16.7127C42.9693 16.893 42.8556 17.1431 42.8268 17.4629H44.9574ZM46.8343 16.5712C46.9328 16.3785 47.0736 16.2289 47.2567 16.1223C47.439 16.0157 47.6615 15.9624 47.9242 15.9624V16.5405H47.7764C47.1483 16.5405 46.8343 16.8807 46.8343 17.5613V19.3939H46.2739V16.0239H46.8343V16.5712ZM50.8984 16.0239H51.4772L49.4452 20.9806H48.8663L49.5314 19.3571L48.1705 16.0239H48.7925L49.8516 18.7544L50.8984 16.0239ZM53.5093 19.4493C53.1932 19.4493 52.9067 19.3776 52.6497 19.2341C52.3935 19.0906 52.1924 18.8864 52.0462 18.6215C51.9009 18.3575 51.8282 18.0513 51.8282 17.7028C51.8282 17.3584 51.9029 17.0538 52.0524 16.7889C52.2026 16.5249 52.4071 16.3219 52.6657 16.1801C52.9243 16.039 53.2137 15.9685 53.5339 15.9685C53.8541 15.9685 54.1435 16.039 54.4022 16.1801C54.6608 16.3219 54.8648 16.5241 55.0142 16.7864C55.1645 17.0488 55.2396 17.3543 55.2396 17.7028C55.2396 18.0513 55.1624 18.3575 55.0081 18.6215C54.8546 18.8864 54.6464 19.0906 54.3837 19.2341C54.121 19.3776 53.8295 19.4493 53.5093 19.4493ZM53.5093 18.9573C53.7104 18.9573 53.8993 18.9102 54.0758 18.8159C54.2523 18.7216 54.3948 18.5801 54.5032 18.3915C54.6124 18.2029 54.667 17.9734 54.667 17.7028C54.667 17.4322 54.6136 17.2026 54.5069 17.014C54.4001 16.8254 54.2605 16.6848 54.0881 16.5921C53.9157 16.5003 53.7289 16.4544 53.5278 16.4544C53.3225 16.4544 53.1345 16.5003 52.9637 16.5921C52.7938 16.6848 52.6575 16.8254 52.5548 17.014C52.4522 17.2026 52.4009 17.4322 52.4009 17.7028C52.4009 17.9775 52.451 18.2091 52.5511 18.3977C52.6521 18.5863 52.7868 18.7269 52.9551 18.8196C53.1234 18.9114 53.3081 18.9573 53.5093 18.9573ZM57.6214 15.9624C58.032 15.9624 58.3649 16.0862 58.6202 16.3338C58.8739 16.5823 59.0008 16.9402 59.0008 17.4076V19.3939H58.4466V17.4875C58.4466 17.1513 58.3628 16.8939 58.1953 16.7151C58.027 16.5372 57.7971 16.4482 57.5057 16.4482C57.2093 16.4482 56.9741 16.5405 56.8 16.7249C56.6251 16.9094 56.5377 17.178 56.5377 17.5306V19.3939H55.9786V16.0239H56.5377V16.5036C56.6493 16.3314 56.8004 16.1981 56.9909 16.1038C57.1814 16.0095 57.3916 15.9624 57.6214 15.9624ZM62.9972 17.5798C62.9972 17.6864 62.991 17.7991 62.9787 17.918H60.2816C60.3021 18.2501 60.4162 18.5092 60.624 18.6953C60.8309 18.8823 61.0821 18.9758 61.3777 18.9758C61.6199 18.9758 61.8223 18.9192 61.9848 18.806C62.1466 18.6937 62.2603 18.5432 62.326 18.3546H62.9294C62.8391 18.6785 62.6585 18.9421 62.3875 19.1455C62.1166 19.348 61.78 19.4493 61.3777 19.4493C61.0575 19.4493 60.7713 19.3776 60.5193 19.2341C60.2664 19.0906 60.0681 18.8864 59.9244 18.6215C59.7808 18.3575 59.7089 18.0513 59.7089 17.7028C59.7089 17.3543 59.7787 17.0488 59.9183 16.7864C60.0579 16.5241 60.2541 16.3219 60.507 16.1801C60.759 16.039 61.0493 15.9685 61.3777 15.9685C61.6979 15.9685 61.9811 16.0382 62.2274 16.1776C62.4738 16.317 62.6638 16.5085 62.7977 16.752C62.9307 16.9964 62.9972 17.2723 62.9972 17.5798ZM62.4183 17.4629C62.4183 17.2497 62.3711 17.0661 62.2767 16.9119C62.1823 16.7586 62.0542 16.6417 61.8925 16.5614C61.7299 16.4818 61.5501 16.4421 61.353 16.4421C61.0698 16.4421 60.8288 16.5323 60.6301 16.7127C60.4306 16.893 60.3165 17.1431 60.2878 17.4629H62.4183Z" fill="white"/>
</g>
</g>
</g>
<defs>
<clipPath id="clip0_18_109">
<rect width="63" height="20.9806" fill="white"/>
</clipPath>
<clipPath id="clip1_18_109">
<rect width="63" height="11.8889" fill="white"/>
</clipPath>
<clipPath id="clip2_18_109">
<rect width="63" height="11.8889" fill="white"/>
</clipPath>
<clipPath id="clip3_18_109">
<rect width="63" height="6.28506" fill="white" transform="translate(0 14.6955)"/>
</clipPath>
<clipPath id="clip4_18_109">
<rect width="63" height="6.28506" fill="white" transform="translate(0 14.6955)"/>
</clipPath>
</defs>
</svg>
