<svg width="379" height="236" viewBox="0 0 379 236" fill="none" xmlns="http://www.w3.org/2000/svg">
<g clip-path="url(#clip0_1_52)">
<g clip-path="url(#clip1_1_52)">
<g clip-path="url(#clip2_1_52)">
<g clip-path="url(#clip3_1_52)">
<g clip-path="url(#clip4_1_52)">
<g clip-path="url(#clip5_1_52)">
<g clip-path="url(#clip6_1_52)">
<g clip-path="url(#clip7_1_52)">
<g clip-path="url(#clip8_1_52)">
<g clip-path="url(#clip9_1_52)">
<path d="M92.3796 102.196C93.8334 102.425 95.1648 103.018 96.3737 103.973C97.575 104.928 98.5314 106.112 99.243 107.526C99.947 108.94 100.299 110.449 100.299 112.054C100.299 114.079 99.7824 115.901 98.7495 117.521C97.7165 119.149 96.2168 120.429 94.2504 121.361C92.2763 122.301 89.9503 122.771 87.2722 122.771H72.3518V82.8247H86.6984C89.4147 82.8247 91.7292 83.2717 93.6421 84.1658C95.555 85.0675 96.9896 86.2825 97.9461 87.8108C98.9025 89.3391 99.3807 91.0585 99.3807 92.9689C99.3807 95.3378 98.7418 97.294 97.464 98.8376C96.1786 100.389 94.4838 101.508 92.3796 102.196ZM77.574 87.1231V100.076H86.3541C88.8025 100.076 90.6963 99.5024 92.0353 98.3562C93.3743 97.21 94.0438 95.6243 94.0438 93.5993C94.0438 91.5743 93.3743 89.9887 92.0353 88.8424C90.6963 87.6962 88.7643 87.1231 86.2393 87.1231H77.574ZM86.8131 118.473C89.4147 118.473 91.4423 117.861 92.8961 116.639C94.3499 115.416 95.0768 113.716 95.0768 111.538C95.0768 109.322 94.3116 107.572 92.7813 106.288C91.251 105.012 89.2042 104.374 86.641 104.374H77.574V118.473H86.8131ZM110.227 86.2634C109.232 86.2634 108.39 85.9195 107.702 85.2318C107.013 84.5441 106.669 83.7035 106.669 82.7101C106.669 81.7167 107.013 80.8761 107.702 80.1883C108.39 79.5006 109.232 79.1567 110.227 79.1567C111.183 79.1567 111.994 79.5006 112.66 80.1883C113.333 80.8761 113.67 81.7167 113.67 82.7101C113.67 83.7035 113.333 84.5441 112.66 85.2318C111.994 85.9195 111.183 86.2634 110.227 86.2634ZM107.53 91.3642H112.752V122.771H107.53V91.3642ZM119.695 106.953C119.695 103.744 120.346 100.924 121.647 98.4938C122.947 96.0714 124.734 94.1915 127.006 92.8543C129.287 91.517 131.842 90.8484 134.673 90.8484C137.122 90.8484 139.398 91.41 141.502 92.5333C143.606 93.6643 145.213 95.1467 146.323 96.9807V80.3603H151.602V122.771H146.323V116.868C145.29 118.74 143.759 120.276 141.732 121.476C139.704 122.683 137.332 123.287 134.616 123.287C131.823 123.287 129.287 122.599 127.006 121.224C124.734 119.848 122.947 117.919 121.647 115.435C120.346 112.952 119.695 110.124 119.695 106.953ZM146.323 107.01C146.323 104.641 145.844 102.578 144.888 100.821C143.932 99.0631 142.639 97.7143 141.009 96.7744C139.387 95.8421 137.6 95.376 135.649 95.376C133.698 95.376 131.919 95.8345 130.312 96.7515C128.705 97.6685 127.424 99.0057 126.467 100.763C125.511 102.521 125.032 104.584 125.032 106.953C125.032 109.36 125.511 111.45 126.467 113.223C127.424 115.003 128.705 116.36 130.312 117.292C131.919 118.232 133.698 118.702 135.649 118.702C137.6 118.702 139.387 118.232 141.009 117.292C142.639 116.36 143.932 115.003 144.888 113.223C145.844 111.45 146.323 109.379 146.323 107.01ZM205.075 82.8247H210.699L199.107 122.771H193.253L183.957 90.6191L174.316 122.771L168.52 122.828L157.329 82.8247H162.896L171.619 116.696L181.259 82.8247H187.113L196.295 116.581L205.075 82.8247ZM245.13 105.864C245.13 106.857 245.073 107.908 244.958 109.016H219.823C220.014 112.111 221.078 114.526 223.014 116.26C224.942 118.003 227.283 118.874 230.038 118.874C232.295 118.874 234.181 118.347 235.696 117.292C237.203 116.245 238.263 114.843 238.875 113.085H244.499C243.657 116.104 241.974 118.561 239.449 120.456C236.924 122.343 233.787 123.287 230.038 123.287C227.054 123.287 224.387 122.618 222.038 121.281C219.682 119.944 217.834 118.041 216.495 115.573C215.156 113.112 214.486 110.258 214.486 107.01C214.486 103.763 215.137 100.916 216.437 98.4708C217.738 96.0255 219.567 94.1419 221.923 92.8199C224.272 91.5055 226.977 90.8484 230.038 90.8484C233.022 90.8484 235.662 91.4979 237.957 92.797C240.253 94.096 242.024 95.8803 243.271 98.1499C244.511 100.427 245.13 102.998 245.13 105.864ZM239.736 104.775C239.736 102.788 239.296 101.077 238.416 99.64C237.536 98.211 236.343 97.1221 234.835 96.3732C233.32 95.632 231.645 95.2614 229.808 95.2614C227.168 95.2614 224.923 96.1019 223.071 97.7831C221.212 99.4642 220.148 101.795 219.88 104.775H239.736ZM250.066 106.953C250.066 103.744 250.716 100.924 252.017 98.4938C253.318 96.0714 255.104 94.1915 257.377 92.8543C259.657 91.517 262.193 90.8484 264.986 90.8484C267.741 90.8484 270.132 91.4406 272.159 92.625C274.187 93.8095 275.698 95.2996 276.693 97.0953V91.3642H281.972V122.771H276.693V116.925C275.66 118.759 274.118 120.276 272.068 121.476C270.025 122.683 267.645 123.287 264.929 123.287C262.136 123.287 259.611 122.599 257.354 121.224C255.096 119.848 253.318 117.919 252.017 115.435C250.716 112.952 250.066 110.124 250.066 106.953ZM276.693 107.01C276.693 104.641 276.215 102.578 275.258 100.821C274.302 99.0631 273.009 97.7143 271.379 96.7744C269.757 95.8421 267.97 95.376 266.019 95.376C264.068 95.376 262.289 95.8345 260.682 96.7515C259.075 97.6685 257.794 99.0057 256.837 100.763C255.881 102.521 255.403 104.584 255.403 106.953C255.403 109.36 255.881 111.45 256.837 113.223C257.794 115.003 259.075 116.36 260.682 117.292C262.289 118.232 264.068 118.702 266.019 118.702C267.97 118.702 269.757 118.232 271.379 117.292C273.009 116.36 274.302 115.003 275.258 113.223C276.215 111.45 276.693 109.379 276.693 107.01ZM296.032 96.4649C296.95 94.6691 298.259 93.2746 299.957 92.2811C301.664 91.2877 303.741 90.791 306.189 90.791V96.1784H304.812C298.959 96.1784 296.032 99.3496 296.032 105.692V122.771H290.81V91.3642H296.032V96.4649Z" fill="black"/>
</g>
</g>
<g clip-path="url(#clip10_1_52)">
<g clip-path="url(#clip11_1_52)">
<path d="M72.3574 143.178C72.3574 141.626 72.7079 140.229 73.4088 138.987C74.1098 137.748 75.0667 136.779 76.2797 136.079C77.4896 135.379 78.8335 135.029 80.3116 135.029C82.0488 135.029 83.5649 135.447 84.8602 136.284C86.1554 137.121 87.1001 138.308 87.6944 139.845H85.203C84.7611 138.887 84.1257 138.149 83.2967 137.631C82.4647 137.114 81.4697 136.855 80.3116 136.855C79.1993 136.855 78.2012 137.114 77.3174 137.631C76.4336 138.149 75.7402 138.882 75.2374 139.832C74.7345 140.784 74.4831 141.9 74.4831 143.178C74.4831 144.441 74.7345 145.548 75.2374 146.497C75.7402 147.45 76.4336 148.185 77.3174 148.702C78.2012 149.22 79.1993 149.479 80.3116 149.479C81.4697 149.479 82.4647 149.223 83.2967 148.712C84.1257 148.203 84.7611 147.47 85.203 146.511H87.6944C87.1001 148.033 86.1554 149.208 84.8602 150.036C83.5649 150.866 82.0488 151.282 80.3116 151.282C78.8335 151.282 77.4896 150.935 76.2797 150.241C75.0667 149.55 74.1098 148.588 73.4088 147.356C72.7079 146.123 72.3574 144.73 72.3574 143.178ZM90.7801 134.253H92.8601V151.145H90.7801V134.253ZM101.866 151.35C100.692 151.35 99.6288 151.084 98.6749 150.551C97.724 150.019 96.9774 149.261 96.4349 148.278C95.8955 147.298 95.6258 146.161 95.6258 144.867C95.6258 143.589 95.9031 142.458 96.4577 141.475C97.0155 140.495 97.7743 139.742 98.7343 139.215C99.6943 138.692 100.769 138.43 101.957 138.43C103.146 138.43 104.22 138.692 105.18 139.215C106.14 139.742 106.897 140.492 107.452 141.466C108.01 142.44 108.288 143.574 108.288 144.867C108.288 146.161 108.002 147.298 107.429 148.278C106.859 149.261 106.087 150.019 105.111 150.551C104.136 151.084 103.054 151.35 101.866 151.35ZM101.866 149.524C102.612 149.524 103.313 149.349 103.969 148.999C104.624 148.649 105.153 148.124 105.555 147.424C105.96 146.724 106.163 145.872 106.163 144.867C106.163 143.863 105.965 143.011 105.569 142.311C105.172 141.611 104.654 141.089 104.014 140.745C103.374 140.404 102.681 140.234 101.934 140.234C101.172 140.234 100.474 140.404 99.8406 140.745C99.2097 141.089 98.7038 141.611 98.3229 142.311C97.9419 143.011 97.7515 143.863 97.7515 144.867C97.7515 145.887 97.9374 146.747 98.3092 147.447C98.684 148.147 99.1838 148.669 99.8086 149.013C100.433 149.354 101.119 149.524 101.866 149.524ZM116.832 140.348H113.564V147.721C113.564 148.33 113.693 148.76 113.952 149.013C114.211 149.262 114.661 149.387 115.301 149.387H116.832V151.145H114.958C113.8 151.145 112.931 150.879 112.352 150.346C111.773 149.813 111.484 148.938 111.484 147.721V140.348H109.861V138.636H111.484V135.485H113.564V138.636H116.832V140.348ZM125.564 138.407C126.508 138.407 127.362 138.608 128.124 139.01C128.886 139.415 129.484 140.02 129.92 140.827C130.353 141.634 130.569 142.615 130.569 143.772V151.145H128.512V144.069C128.512 142.821 128.2 141.865 127.575 141.201C126.95 140.541 126.097 140.211 125.015 140.211C123.918 140.211 123.046 140.553 122.4 141.238C121.751 141.923 121.427 142.92 121.427 144.228V151.145H119.347V134.253H121.427V140.416C121.838 139.777 122.406 139.282 123.132 138.932C123.854 138.582 124.665 138.407 125.564 138.407ZM145.404 144.411C145.404 144.807 145.381 145.225 145.335 145.666H135.324C135.4 146.899 135.822 147.861 136.59 148.552C137.361 149.246 138.295 149.593 139.392 149.593C140.291 149.593 141.041 149.383 141.641 148.963C142.245 148.546 142.668 147.987 142.912 147.287H145.152C144.817 148.489 144.146 149.468 143.141 150.223C142.135 150.975 140.885 151.35 139.392 151.35C138.204 151.35 137.14 151.084 136.201 150.551C135.266 150.019 134.531 149.261 133.998 148.278C133.465 147.298 133.198 146.161 133.198 144.867C133.198 143.574 133.457 142.44 133.975 141.466C134.493 140.492 135.22 139.742 136.156 139.215C137.094 138.692 138.173 138.43 139.392 138.43C140.581 138.43 141.632 138.689 142.546 139.206C143.461 139.724 144.165 140.434 144.658 141.338C145.155 142.245 145.404 143.27 145.404 144.411ZM143.255 143.977C143.255 143.186 143.08 142.504 142.729 141.932C142.379 141.363 141.902 140.929 141.298 140.631C140.698 140.335 140.032 140.188 139.301 140.188C138.249 140.188 137.353 140.523 136.613 141.192C135.875 141.862 135.453 142.79 135.347 143.977H143.255ZM152.581 151.35C151.621 151.35 150.76 151.186 149.998 150.857C149.236 150.532 148.634 150.075 148.192 149.488C147.75 148.903 147.506 148.231 147.461 147.47H149.609C149.67 148.094 149.963 148.604 150.487 148.999C151.014 149.395 151.704 149.593 152.558 149.593C153.35 149.593 153.975 149.418 154.432 149.068C154.889 148.718 155.118 148.276 155.118 147.744C155.118 147.196 154.874 146.788 154.386 146.52C153.899 146.255 153.144 145.994 152.123 145.735C151.194 145.491 150.435 145.243 149.847 144.991C149.262 144.741 148.759 144.368 148.338 143.872C147.921 143.379 147.712 142.729 147.712 141.923C147.712 141.284 147.903 140.698 148.284 140.165C148.664 139.632 149.205 139.209 149.906 138.896C150.607 138.585 151.407 138.43 152.306 138.43C153.693 138.43 154.813 138.78 155.666 139.48C156.52 140.18 156.977 141.139 157.038 142.356H154.958C154.912 141.702 154.648 141.177 154.167 140.781C153.688 140.386 153.045 140.188 152.238 140.188C151.491 140.188 150.897 140.348 150.455 140.667C150.013 140.987 149.792 141.405 149.792 141.923C149.792 142.334 149.925 142.671 150.19 142.936C150.458 143.204 150.793 143.419 151.195 143.58C151.601 143.738 152.162 143.916 152.878 144.114C153.777 144.358 154.508 144.597 155.072 144.831C155.636 145.068 156.119 145.423 156.521 145.895C156.926 146.366 157.137 146.983 157.152 147.744C157.152 148.429 156.962 149.045 156.581 149.593C156.2 150.141 155.662 150.57 154.967 150.88C154.275 151.194 153.48 151.35 152.581 151.35ZM171.273 138.636V140.348H168.644V151.145H166.564V140.348H164.942V138.636H166.564V137.745C166.564 136.345 166.927 135.321 167.652 134.673C168.375 134.028 169.536 133.705 171.136 133.705V135.44C170.222 135.44 169.579 135.618 169.207 135.974C168.832 136.333 168.644 136.924 168.644 137.745V138.636H171.273ZM179.159 151.35C177.985 151.35 176.922 151.084 175.968 150.551C175.017 150.019 174.27 149.261 173.728 148.278C173.188 147.298 172.919 146.161 172.919 144.867C172.919 143.589 173.196 142.458 173.751 141.475C174.308 140.495 175.067 139.742 176.027 139.215C176.987 138.692 178.062 138.43 179.25 138.43C180.439 138.43 181.513 138.692 182.473 139.215C183.433 139.742 184.19 140.492 184.745 141.466C185.303 142.44 185.581 143.574 185.581 144.867C185.581 146.161 185.295 147.298 184.722 148.278C184.152 149.261 183.38 150.019 182.404 150.551C181.429 151.084 180.347 151.35 179.159 151.35ZM179.159 149.524C179.905 149.524 180.606 149.349 181.261 148.999C181.917 148.649 182.445 148.124 182.848 147.424C183.253 146.724 183.456 145.872 183.456 144.867C183.456 143.863 183.258 143.011 182.861 142.311C182.465 141.611 181.947 141.089 181.307 140.745C180.667 140.404 179.974 140.234 179.227 140.234C178.465 140.234 177.767 140.404 177.134 140.745C176.503 141.089 175.997 141.611 175.616 142.311C175.235 143.011 175.044 143.863 175.044 144.867C175.044 145.887 175.23 146.747 175.602 147.447C175.977 148.147 176.477 148.669 177.102 149.013C177.726 149.354 178.412 149.524 179.159 149.524ZM190.404 140.667C190.77 139.952 191.291 139.397 191.968 139.001C192.647 138.605 193.475 138.407 194.45 138.407V140.553H193.901C191.57 140.553 190.404 141.816 190.404 144.342V151.145H188.324V138.636H190.404V140.667ZM214.377 144.411C214.377 144.807 214.354 145.225 214.308 145.666H204.297C204.373 146.899 204.796 147.861 205.568 148.552C206.335 149.246 207.268 149.593 208.365 149.593C209.264 149.593 210.015 149.383 210.619 148.963C211.219 148.546 211.641 147.987 211.885 147.287H214.125C213.79 148.489 213.119 149.468 212.114 150.223C211.108 150.975 209.859 151.35 208.365 151.35C207.177 151.35 206.115 151.084 205.179 150.551C204.24 150.019 203.504 149.261 202.971 148.278C202.438 147.298 202.171 146.161 202.171 144.867C202.171 143.574 202.43 142.44 202.948 141.466C203.466 140.492 204.195 139.742 205.133 139.215C206.069 138.692 207.146 138.43 208.365 138.43C209.554 138.43 210.605 138.689 211.519 139.206C212.434 139.724 213.139 140.434 213.636 141.338C214.13 142.245 214.377 143.27 214.377 144.411ZM212.228 143.977C212.228 143.186 212.053 142.504 211.702 141.932C211.352 141.363 210.876 140.929 210.276 140.631C209.673 140.335 209.005 140.188 208.274 140.188C207.222 140.188 206.328 140.523 205.59 141.192C204.85 141.862 204.426 142.79 204.32 143.977H212.228ZM217.874 138.636L221.782 149.227L225.668 138.636H227.885L222.971 151.145H220.548L215.634 138.636H217.874ZM241.371 144.411C241.371 144.807 241.348 145.225 241.302 145.666H231.291C231.367 146.899 231.789 147.861 232.557 148.552C233.328 149.246 234.262 149.593 235.359 149.593C236.258 149.593 237.008 149.383 237.608 148.963C238.212 148.546 238.635 147.987 238.879 147.287H241.119C240.784 148.489 240.113 149.468 239.108 150.223C238.102 150.975 236.853 151.35 235.359 151.35C234.171 151.35 233.107 151.084 232.168 150.551C231.233 150.019 230.498 149.261 229.965 148.278C229.432 147.298 229.165 146.161 229.165 144.867C229.165 143.574 229.424 142.44 229.942 141.466C230.46 140.492 231.187 139.742 232.123 139.215C233.061 138.692 234.14 138.43 235.359 138.43C236.548 138.43 237.599 138.689 238.513 139.206C239.428 139.724 240.132 140.434 240.625 141.338C241.122 142.245 241.371 143.27 241.371 144.411ZM239.222 143.977C239.222 143.186 239.047 142.504 238.696 141.932C238.346 141.363 237.869 140.929 237.265 140.631C236.665 140.335 235.999 140.188 235.268 140.188C234.216 140.188 233.32 140.523 232.58 141.192C231.842 141.862 231.42 142.79 231.314 143.977H239.222ZM246.189 140.667C246.555 139.952 247.077 139.397 247.757 139.001C248.433 138.605 249.259 138.407 250.234 138.407V140.553H249.686C247.355 140.553 246.189 141.816 246.189 144.342V151.145H244.109V138.636H246.189V140.667ZM261.274 138.636H263.423L255.88 157.034H253.732L256.2 151.008L251.149 138.636H253.457L257.389 148.771L261.274 138.636ZM270.966 151.35C269.792 151.35 268.729 151.084 267.775 150.551C266.824 150.019 266.077 149.261 265.535 148.278C264.995 147.298 264.726 146.161 264.726 144.867C264.726 143.589 265.003 142.458 265.558 141.475C266.115 140.495 266.874 139.742 267.834 139.215C268.794 138.692 269.869 138.43 271.057 138.43C272.246 138.43 273.32 138.692 274.28 139.215C275.24 139.742 275.997 140.492 276.552 141.466C277.11 142.44 277.389 143.574 277.389 144.867C277.389 146.161 277.102 147.298 276.529 148.278C275.959 149.261 275.187 150.019 274.211 150.551C273.236 151.084 272.154 151.35 270.966 151.35ZM270.966 149.524C271.712 149.524 272.413 149.349 273.069 148.999C273.724 148.649 274.253 148.124 274.655 147.424C275.06 146.724 275.263 145.872 275.263 144.867C275.263 143.863 275.065 143.011 274.669 142.311C274.272 141.611 273.754 141.089 273.114 140.745C272.474 140.404 271.781 140.234 271.034 140.234C270.272 140.234 269.574 140.404 268.941 140.745C268.31 141.089 267.804 141.611 267.423 142.311C267.042 143.011 266.851 143.863 266.851 144.867C266.851 145.887 267.037 146.747 267.409 147.447C267.784 148.147 268.284 148.669 268.909 149.013C269.533 149.354 270.219 149.524 270.966 149.524ZM286.23 138.407C287.753 138.407 288.989 138.867 289.937 139.786C290.879 140.708 291.35 142.037 291.35 143.772V151.145H289.292V144.069C289.292 142.821 288.982 141.865 288.36 141.201C287.735 140.541 286.882 140.211 285.8 140.211C284.7 140.211 283.827 140.553 283.18 141.238C282.531 141.923 282.207 142.92 282.207 144.228V151.145H280.131V138.636H282.207V140.416C282.621 139.777 283.182 139.282 283.889 138.932C284.596 138.582 285.376 138.407 286.23 138.407ZM306.184 144.411C306.184 144.807 306.161 145.225 306.115 145.666H296.104C296.18 146.899 296.604 147.861 297.375 148.552C298.143 149.246 299.075 149.593 300.172 149.593C301.071 149.593 301.823 149.383 302.426 148.963C303.026 148.546 303.448 147.987 303.692 147.287H305.932C305.597 148.489 304.927 149.468 303.921 150.223C302.915 150.975 301.666 151.35 300.172 151.35C298.984 151.35 297.922 151.084 296.986 150.551C296.047 150.019 295.311 149.261 294.778 148.278C294.245 147.298 293.978 146.161 293.978 144.867C293.978 143.574 294.237 142.44 294.755 141.466C295.273 140.492 296.002 139.742 296.94 139.215C297.876 138.692 298.953 138.43 300.172 138.43C301.361 138.43 302.412 138.689 303.327 139.206C304.241 139.724 304.946 140.434 305.443 141.338C305.937 142.245 306.184 143.27 306.184 144.411ZM304.035 143.977C304.035 143.186 303.86 142.504 303.509 141.932C303.159 141.363 302.683 140.929 302.083 140.631C301.48 140.335 300.812 140.188 300.081 140.188C299.029 140.188 298.135 140.523 297.397 141.192C296.657 141.862 296.233 142.79 296.127 143.977H304.035Z" fill="black"/>
</g>
</g>
</g>
</g>
</g>
</g>
</g>
<path d="M235.246 0C300.553 0 353.495 52.8736 353.495 118.096C353.495 183.318 300.553 236.191 235.246 236.191C185.567 236.191 143.044 205.596 125.536 162.244H127.688C145.085 204.472 186.688 234.202 235.246 234.201C299.452 234.201 351.502 182.219 351.502 118.096C351.502 53.9723 299.452 1.99023 235.246 1.99023C186.689 1.99023 145.085 31.7205 127.688 73.9473H125.536C143.044 30.595 185.567 0 235.246 0Z" fill="black"/>
</g>
</g>
</g>
<defs>
<clipPath id="clip0_1_52">
<rect width="379" height="236" fill="white" transform="translate(-0.229675 0.0955505)"/>
</clipPath>
<clipPath id="clip1_1_52">
<rect width="378.397" height="236.191" fill="white" transform="translate(0.0720215)"/>
</clipPath>
<clipPath id="clip2_1_52">
<rect width="378.397" height="236.191" fill="white" transform="translate(0.0720215)"/>
</clipPath>
<clipPath id="clip3_1_52">
<rect width="233.849" height="77.8776" fill="white" transform="translate(72.3458 79.1567)"/>
</clipPath>
<clipPath id="clip4_1_52">
<rect width="233.849" height="77.8776" fill="white" transform="translate(72.3458 79.1567)"/>
</clipPath>
<clipPath id="clip5_1_52">
<rect width="233.849" height="77.8776" fill="white" transform="translate(72.3458 79.1567)"/>
</clipPath>
<clipPath id="clip6_1_52">
<rect width="233.849" height="77.8776" fill="white" transform="translate(72.3458 79.1567)"/>
</clipPath>
<clipPath id="clip7_1_52">
<rect width="233.849" height="77.8776" fill="white" transform="translate(72.3458 79.1567)"/>
</clipPath>
<clipPath id="clip8_1_52">
<rect width="233.849" height="44.1301" fill="white" transform="translate(72.3458 79.1567)"/>
</clipPath>
<clipPath id="clip9_1_52">
<rect width="233.849" height="44.1301" fill="white" transform="translate(72.3458 79.1567)"/>
</clipPath>
<clipPath id="clip10_1_52">
<rect width="233.849" height="23.3295" fill="white" transform="translate(72.3458 133.705)"/>
</clipPath>
<clipPath id="clip11_1_52">
<rect width="233.849" height="23.3295" fill="white" transform="translate(72.3458 133.705)"/>
</clipPath>
</defs>
</svg>
